%
M48
M72
T01C0.0200
T02C0.0280
T04C0.0380
T05C0.0420
T06C0.0520
%
T01
X1014Y1537
X7064Y5137
X8124Y5067
X9924Y5067
X10364Y4537
X10964Y5037
X10564Y6037
X10564Y6587
X10214Y6987
X8724Y7067
X9124Y8267
X11024Y8367
X12564Y6987
X12764Y6537
X12614Y6037
X12664Y5587
X14614Y5787
X16114Y6687
X14114Y7899
X15114Y8887
X14144Y8927
X12424Y10367
X10724Y10667
X6124Y9167
X2564Y7037
X1064Y6537
X1924Y10617
X13864Y3177
X15464Y4437
X15814Y2587
X15614Y11487
T02
X13374Y2705
X12783Y2705
X12193Y2705
X11602Y2705
X11012Y2705
X10421Y2705
X9831Y2705
X9240Y2705
X8650Y2705
X8059Y2705
X7469Y2705
X6878Y2705
X6287Y2705
X5697Y2705
X5106Y2705
X4516Y2705
X3925Y2705
T04
X736Y2705
X736Y11799
X16563Y11799
X16563Y2705
T05
X16064Y1487
X15064Y1487
X14064Y1487
X13064Y1487
X12064Y1487
X11064Y1487
X10064Y1487
X9064Y1487
X5164Y8387
X5164Y9387
X5164Y10387
X7164Y10437
X8164Y10437
X8164Y9437
X7164Y9437
X7164Y8437
X8164Y8437
T06
X1839Y3473
X15461Y3473
M30
